<svg xmlns="http://www.w3.org/2000/svg" viewBox="0 0 1920 1080" preserveAspectRatio="xMidYMid slice">
  <defs>
    <!-- Gradient definitions -->
    <linearGradient id="bgGradient" x1="0%" y1="0%" x2="100%" y2="100%">
      <stop offset="0%" style="stop-color:#0a1628;stop-opacity:1" />
      <stop offset="50%" style="stop-color:#1a1f35;stop-opacity:1" />
      <stop offset="100%" style="stop-color:#0f1419;stop-opacity:1" />
    </linearGradient>
    
    <radialGradient id="glowGradient1" cx="50%" cy="50%" r="50%">
      <stop offset="0%" style="stop-color:#1dd1a1;stop-opacity:0.15" />
      <stop offset="100%" style="stop-color:#1dd1a1;stop-opacity:0" />
    </radialGradient>
    
    <radialGradient id="glowGradient2" cx="50%" cy="50%" r="50%">
      <stop offset="0%" style="stop-color:#ffd700;stop-opacity:0.1" />
      <stop offset="100%" style="stop-color:#ffd700;stop-opacity:0" />
    </radialGradient>
    
    <!-- Grid pattern -->
    <pattern id="grid" width="100" height="100" patternUnits="userSpaceOnUse">
      <path d="M 100 0 L 0 0 0 100" fill="none" stroke="rgba(29, 209, 161, 0.05)" stroke-width="1"/>
    </pattern>
    
    <!-- Dot pattern -->
    <pattern id="dots" width="30" height="30" patternUnits="userSpaceOnUse">
      <circle cx="15" cy="15" r="1" fill="rgba(29, 209, 161, 0.15)"/>
    </pattern>
  </defs>
  
  <!-- Base gradient background -->
  <rect width="1920" height="1080" fill="url(#bgGradient)"/>
  
  <!-- Grid overlay -->
  <rect width="1920" height="1080" fill="url(#grid)" opacity="0.3"/>
  
  <!-- Dot pattern overlay -->
  <rect width="1920" height="1080" fill="url(#dots)"/>
  
  <!-- Glowing orbs -->
  <circle cx="300" cy="200" r="400" fill="url(#glowGradient1)" opacity="0.5">
    <animate attributeName="cx" values="300;400;300" dur="20s" repeatCount="indefinite"/>
    <animate attributeName="cy" values="200;300;200" dur="15s" repeatCount="indefinite"/>
  </circle>
  
  <circle cx="1600" cy="800" r="500" fill="url(#glowGradient2)" opacity="0.4">
    <animate attributeName="cx" values="1600;1500;1600" dur="25s" repeatCount="indefinite"/>
    <animate attributeName="cy" values="800;700;800" dur="18s" repeatCount="indefinite"/>
  </circle>
  
  <!-- Floating geometric shapes -->
  <g opacity="0.06">
    <polygon points="150,400 200,450 150,500 100,450" fill="#1dd1a1" transform="rotate(45 150 450)">
      <animateTransform attributeName="transform" type="rotate" from="0 150 450" to="360 150 450" dur="60s" repeatCount="indefinite"/>
    </polygon>
    
    <rect x="1700" y="150" width="60" height="60" fill="#ffd700" opacity="0.5">
      <animateTransform attributeName="transform" type="rotate" from="0 1730 180" to="360 1730 180" dur="50s" repeatCount="indefinite"/>
    </rect>
    
    <circle cx="1400" cy="300" r="30" fill="#54a0ff" opacity="0.6">
      <animate attributeName="cy" values="300;250;300" dur="8s" repeatCount="indefinite"/>
    </circle>
  </g>
  
  <!-- Code bracket decorations -->
  <g opacity="0.08" stroke="#1dd1a1" stroke-width="2" fill="none">
    <path d="M 100 100 L 80 120 L 80 180 L 100 200"/>
    <path d="M 1820 100 L 1840 120 L 1840 180 L 1820 200"/>
    <path d="M 100 880 L 80 900 L 80 960 L 100 980"/>
    <path d="M 1820 880 L 1840 900 L 1840 960 L 1820 980"/>
  </g>
  
  <!-- Subtle lines connecting -->
  <g opacity="0.04" stroke="#1dd1a1" stroke-width="1">
    <line x1="0" y1="540" x2="1920" y2="540"/>
    <line x1="960" y1="0" x2="960" y2="1080"/>
  </g>
  
  <!-- Circuit-like patterns -->
  <g opacity="0.05" stroke="#54a0ff" stroke-width="1.5" fill="none">
    <path d="M 400 50 L 400 100 L 450 100 L 450 150">
      <animate attributeName="stroke-opacity" values="0.05;0.15;0.05" dur="4s" repeatCount="indefinite"/>
    </path>
    <circle cx="450" cy="150" r="3" fill="#54a0ff"/>
    
    <path d="M 1520 930 L 1520 880 L 1470 880 L 1470 830">
      <animate attributeName="stroke-opacity" values="0.05;0.15;0.05" dur="5s" repeatCount="indefinite"/>
    </path>
    <circle cx="1470" cy="830" r="3" fill="#54a0ff"/>
  </g>
</svg>